<svg width="22" height="16" viewBox="0 0 22 16" fill="none" xmlns="http://www.w3.org/2000/svg">
<path d="M16.841 10.6886L14.1523 7.99999L16.841 5.31132L15.4403 3.91076L12.7517 6.59944L10.0631 3.91076L8.6625 5.31132L11.3512 7.99999L8.6625 10.6886L10.0631 12.0892L12.7517 9.40055L15.4403 12.0892L16.841 10.6886ZM0.809571 9.92043L5.67105 14.7819C6.27057 15.3814 6.77666 15.6046 7.86303 15.6046H19.27C20.7699 15.6046 21.9859 14.3886 21.9859 12.8887V3.1113C21.9859 1.61134 20.7699 0.395355 19.27 0.395355H7.86303C6.77666 0.395355 6.27057 0.618769 5.67105 1.21823L0.809571 6.07955C-0.251058 7.14018 -0.251058 8.8598 0.809571 9.92043ZM7.86303 13.9751C7.31985 13.9751 7.10518 13.9114 6.82337 13.6297L1.96189 8.76817C1.53761 8.34394 1.53761 7.6561 1.96189 7.23181L6.82337 2.3705C7.10518 2.08874 7.31985 2.02492 7.86303 2.02497H19.27C19.87 2.02497 20.3564 2.51134 20.3564 3.11135V12.8887C20.3564 13.4887 19.87 13.9751 19.27 13.9751L7.86303 13.9751Z" fill="#219EBC"/>
</svg>
